<svg width="60" height="48" viewBox="0 0 60 48" fill="none" xmlns="http://www.w3.org/2000/svg">
<path fill-rule="evenodd" clip-rule="evenodd" d="M53 23.9997C53 36.7033 42.7081 47 30.0029 47C17.2999 47 7 36.7033 7 23.9997C7 11.2973 17.2999 1 30.0029 1C42.7081 1 53 11.2973 53 23.9997Z" fill="#18191A"/>
<path fill-rule="evenodd" clip-rule="evenodd" d="M26.9967 9.81948C30.6289 12.021 33.2516 15.8209 33.7713 20.3955C34.6542 28.2011 29.0817 35.2531 21.3184 36.1382C21.1418 36.1622 20.9673 36.1622 20.7857 36.1743C23.3655 37.7376 26.451 38.4952 29.6702 38.133C37.4295 37.2399 43.006 30.1879 42.1222 22.3793C41.2612 14.7523 34.5465 9.24051 26.9967 9.81948Z" fill="white"/>
<path fill-rule="evenodd" clip-rule="evenodd" d="M11.5 8.86622C11.3529 8.9513 11.1821 9 11 9C10.4477 9 10 8.55228 10 8C10 7.44772 10.4477 7 11 7C11.1821 7 11.3529 7.0487 11.5 7.13378C11.6471 7.0487 11.8179 7 12 7H48C48.1821 7 48.3529 7.0487 48.5 7.13378C48.6471 7.0487 48.8179 7 49 7C49.5523 7 50 7.44772 50 8C50 8.55228 49.5523 9 49 9C48.8179 9 48.6471 8.9513 48.5 8.86622C48.3529 8.9513 48.1821 9 48 9H12C11.8179 9 11.6471 8.9513 11.5 8.86622Z" fill="#C6C9CC"/>
<path fill-rule="evenodd" clip-rule="evenodd" d="M11.5 13.8662C11.3529 13.9513 11.1821 14 11 14C10.4477 14 10 13.5523 10 13C10 12.4477 10.4477 12 11 12C11.1821 12 11.3529 12.0487 11.5 12.1338C11.6471 12.0487 11.8179 12 12 12H48C48.1821 12 48.3529 12.0487 48.5 12.1338C48.6471 12.0487 48.8179 12 49 12C49.5523 12 50 12.4477 50 13C50 13.5523 49.5523 14 49 14C48.8179 14 48.6471 13.9513 48.5 13.8662C48.3529 13.9513 48.1821 14 48 14H12C11.8179 14 11.6471 13.9513 11.5 13.8662Z" fill="#C6C9CC"/>
<path fill-rule="evenodd" clip-rule="evenodd" d="M11.5 18.8662C11.3529 18.9513 11.1821 19 11 19C10.4477 19 10 18.5523 10 18C10 17.4477 10.4477 17 11 17C11.1821 17 11.3529 17.0487 11.5 17.1338C11.6471 17.0487 11.8179 17 12 17H48C48.1821 17 48.3529 17.0487 48.5 17.1338C48.6471 17.0487 48.8179 17 49 17C49.5523 17 50 17.4477 50 18C50 18.5523 49.5523 19 49 19C48.8179 19 48.6471 18.9513 48.5 18.8662C48.3529 18.9513 48.1821 19 48 19H12C11.8179 19 11.6471 18.9513 11.5 18.8662Z" fill="#C6C9CC"/>
</svg>
