<svg width="60" height="48" viewBox="0 0 60 48" fill="none" xmlns="http://www.w3.org/2000/svg">
<path fill-rule="evenodd" clip-rule="evenodd" d="M53 23.9997C53 36.7033 42.7081 47 30.0029 47C17.2999 47 7 36.7033 7 23.9997C7 11.2973 17.2999 1 30.0029 1C42.7081 1 53 11.2973 53 23.9997Z" fill="#18191A"/>
<path fill-rule="evenodd" clip-rule="evenodd" d="M16 29.1177C16 26.0252 18.9896 26.1825 18.9896 26.1825C18.9896 26.1825 18.4384 24.7715 19.2244 23.5598C19.707 22.8146 20.7736 22.1954 22.0809 22.7354C21.7695 20.3786 24.6672 17.1329 28.2072 17.0068C31.9547 16.8711 35.0636 18.7888 35.2804 21.0023C35.7147 20.5366 37.6007 19.1951 39.7483 21.1267C41.2462 22.4781 40.5506 24.8165 40.5506 24.8165C40.5506 24.8165 45 24.0814 45 28.5342C45 32.2715 40.7129 31.9954 40.7129 31.9954H19.1065C19.1065 31.9954 16 32.0475 16 29.1177Z" fill="#E6E8EB"/>
<path d="M26.656 42.113C26.0128 44.5136 24.669 45.2041 23.3353 44.8467C22.0017 44.4894 21.1831 43.2195 21.8264 40.8189C22.4696 38.4183 25.6647 36.1534 25.6647 36.1534C25.6647 36.1534 27.2992 39.7124 26.656 42.113Z" fill="#4FB3FF"/>
<path d="M37.656 42.113C37.0128 44.5136 35.669 45.2041 34.3353 44.8467C33.0017 44.4894 32.1831 43.2195 32.8264 40.8189C33.4696 38.4183 36.6647 36.1534 36.6647 36.1534C36.6647 36.1534 38.2992 39.7124 37.656 42.113Z" fill="#4FB3FF"/>
<path fill-rule="evenodd" clip-rule="evenodd" d="M42.5344 15.1129C43.164 21.0539 41.1812 25.2411 35.6447 25.9147C35.5188 25.933 32.1295 25.9055 32 25.9147C32 25.9406 33.6614 27.6252 35.1791 28.091C36.7138 28.562 38.4553 28.7518 39.6096 28.6132C45.1432 27.9335 49.1202 22.566 48.4899 16.6228C47.8759 10.8177 41.8727 6.59087 36.4885 7.03154C39.0789 8.70714 42.1637 11.6311 42.5344 15.1129Z" fill="#18191A"/>
<path fill-rule="evenodd" clip-rule="evenodd" d="M36.4294 7.06138C39.0198 8.63841 40.8902 11.3605 41.2609 14.6375C41.8905 20.229 37.9164 25.2807 32.3799 25.9147C32.254 25.9319 32.1295 25.9319 32 25.9405C33.8398 27.0604 36.0403 27.6031 38.3361 27.3436C43.8697 26.7039 47.8467 21.6522 47.2164 16.0585C46.6024 10.595 41.8137 6.64663 36.4294 7.06138Z" fill="white"/>
</svg>
