<svg width="60" height="48" viewBox="0 0 60 48" fill="none" xmlns="http://www.w3.org/2000/svg">
<path fill-rule="evenodd" clip-rule="evenodd" d="M53 23.9997C53 36.7033 42.7081 47 30.0029 47C17.2999 47 7 36.7033 7 23.9997C7 11.2973 17.2999 1 30.0029 1C42.7081 1 53 11.2973 53 23.9997Z" fill="#18191A"/>
<path fill-rule="evenodd" clip-rule="evenodd" d="M15.6048 31.9933C15.6048 31.9933 11 32.0696 11 27.7726C11 23.2369 15.4314 23.4677 15.4314 23.4677C15.4314 23.4677 14.6144 21.3981 15.7794 19.6211C16.4948 18.528 18.0758 17.6199 20.0136 18.4119C19.5521 14.9553 21.8542 10.1949 27.1014 10.01C32.6563 9.811 35.2714 12.6235 35.5929 15.87C36.2366 15.187 39.0322 13.2194 42.2155 16.0526C44.4358 18.0346 43.4048 21.4641 43.4048 21.4641C43.4048 21.4641 50 20.386 50 26.9169C50 32.3982 43.6453 31.9933 43.6453 31.9933H15.6048Z" fill="#E6E8EB"/>
<path d="M32.656 42.113C32.0128 44.5136 30.669 45.2041 29.3353 44.8467C28.0017 44.4894 27.1831 43.2195 27.8264 40.8189C28.4696 38.4183 31.6647 36.1534 31.6647 36.1534C31.6647 36.1534 33.2992 39.7124 32.656 42.113Z" fill="#4FB3FF"/>
<path fill-rule="evenodd" clip-rule="evenodd" d="M42.5344 15.1129C43.164 21.0539 41.1812 25.2411 35.6447 25.9147C35.5188 25.933 32.1295 25.9055 32 25.9147C32 25.9406 33.6614 27.6252 35.1791 28.091C36.7138 28.562 38.4553 28.7518 39.6096 28.6132C45.1432 27.9335 49.1202 22.566 48.4899 16.6228C47.8759 10.8177 41.8727 6.59087 36.4885 7.03154C39.0789 8.70714 42.1637 11.6311 42.5344 15.1129Z" fill="#18191A"/>
<path fill-rule="evenodd" clip-rule="evenodd" d="M36.4294 7.06162C39.0198 8.63866 40.8902 11.3607 41.2609 14.6377C41.8905 20.2292 37.9164 25.2809 32.3799 25.9149C32.254 25.9322 32.1295 25.9322 32 25.9408C33.8398 27.0607 36.0403 27.6034 38.3361 27.3439C43.8697 26.7041 47.8467 21.6524 47.2164 16.0588C46.6024 10.5952 41.8137 6.64687 36.4294 7.06162Z" fill="white"/>
</svg>
