<svg width="60" height="48" viewBox="0 0 60 48" fill="none" xmlns="http://www.w3.org/2000/svg">
<path fill-rule="evenodd" clip-rule="evenodd" d="M53 23.9997C53 36.7033 42.7081 47 30.0029 47C17.2999 47 7 36.7033 7 23.9997C7 11.2973 17.2999 1 30.0029 1C42.7081 1 53 11.2973 53 23.9997Z" fill="#18191A"/>
<path fill-rule="evenodd" clip-rule="evenodd" d="M12.5493 31.9924C12.5493 31.9924 7 32.0791 7 27.1962C7 22.042 12.3404 22.3042 12.3404 22.3042C12.3404 22.3042 11.3558 19.9524 12.7598 17.9331C13.6219 16.6909 15.5272 15.6589 17.8626 16.559C17.3063 12.631 20.0807 7.22144 26.4042 7.01131C33.0986 6.78523 36.2502 9.98127 36.6375 13.6704C37.4133 12.8943 40.7824 10.6585 44.6187 13.8779C47.2945 16.1302 46.0519 20.0274 46.0519 20.0274C46.0519 20.0274 54 18.8023 54 26.2237C54 32.4525 46.3418 31.9924 46.3418 31.9924H12.5493Z" fill="#E6E8EB"/>
<path fill-rule="evenodd" clip-rule="evenodd" d="M41.272 13.3456C41.7664 18.0107 40.2094 21.2986 35.862 21.8276C35.7631 21.842 33.1017 21.8204 33 21.8276C33 21.8479 34.3046 23.1707 35.4963 23.5365C36.7015 23.9063 38.0689 24.0554 38.9753 23.9465C43.3205 23.4128 46.4434 19.1981 45.9484 14.5312C45.4663 9.97291 40.7524 6.65383 36.5245 6.99986C38.5586 8.3156 40.9809 10.6116 41.272 13.3456Z" fill="#18191A"/>
<path fill-rule="evenodd" clip-rule="evenodd" d="M36.4782 7.02346C38.5122 8.26181 39.9809 10.3993 40.272 12.9725C40.7664 17.3631 37.6457 21.3299 33.2983 21.8277C33.1994 21.8413 33.1017 21.8413 33 21.848C34.4447 22.7274 36.1726 23.1535 37.9753 22.9498C42.3205 22.4475 45.4434 18.4807 44.9484 14.0883C44.4663 9.79817 40.706 6.69779 36.4782 7.02346Z" fill="white"/>
</svg>
