<svg width="60" height="48" viewBox="0 0 60 48" fill="none" xmlns="http://www.w3.org/2000/svg">
<path fill-rule="evenodd" clip-rule="evenodd" d="M53 23.9997C53 36.7033 42.7081 47 30.0029 47C17.2999 47 7 36.7033 7 23.9997C7 11.2973 17.2999 1 30.0029 1C42.7081 1 53 11.2973 53 23.9997Z" fill="#18191A"/>
<path fill-rule="evenodd" clip-rule="evenodd" d="M12.5493 31.9924C12.5493 31.9924 7 32.0791 7 27.1962C7 22.042 12.3404 22.3042 12.3404 22.3042C12.3404 22.3042 11.3558 19.9524 12.7598 17.9331C13.6219 16.6909 15.5272 15.6589 17.8626 16.559C17.3063 12.631 20.0807 7.22144 26.4042 7.01131C33.0986 6.78523 36.2502 9.98127 36.6375 13.6704C37.4133 12.8943 40.7824 10.6585 44.6187 13.8779C47.2945 16.1302 46.0519 20.0274 46.0519 20.0274C46.0519 20.0274 54 18.8023 54 26.2237C54 32.4525 46.3418 31.9924 46.3418 31.9924H12.5493Z" fill="#E6E8EB"/>
<path d="M26.656 42.1125C26.0128 44.5131 24.669 45.2036 23.3353 44.8462C22.0017 44.4889 21.1831 43.219 21.8264 40.8185C22.4696 38.4179 25.6647 36.1529 25.6647 36.1529C25.6647 36.1529 27.2992 39.7119 26.656 42.1125Z" fill="#4FB3FF"/>
<path d="M37.656 42.1125C37.0128 44.5131 35.669 45.2036 34.3353 44.8462C33.0017 44.4889 32.1831 43.219 32.8264 40.8185C33.4696 38.4179 36.6647 36.1529 36.6647 36.1529C36.6647 36.1529 38.2992 39.7119 37.656 42.1125Z" fill="#4FB3FF"/>
<path fill-rule="evenodd" clip-rule="evenodd" d="M41.272 13.3461C41.7664 18.0112 40.2094 21.2991 35.862 21.8281C35.7631 21.8425 33.1017 21.8209 33 21.8281C33 21.8484 34.3046 23.1712 35.4963 23.5369C36.7015 23.9068 38.0689 24.0559 38.9753 23.947C43.3205 23.4133 46.4434 19.1986 45.9484 14.5317C45.4663 9.9734 40.7524 6.65432 36.5245 7.00035C38.5586 8.31609 40.9809 10.6121 41.272 13.3461Z" fill="#18191A"/>
<path fill-rule="evenodd" clip-rule="evenodd" d="M36.4782 7.02346C38.5122 8.26181 39.9809 10.3993 40.272 12.9725C40.7664 17.3631 37.6457 21.3299 33.2983 21.8277C33.1994 21.8413 33.1017 21.8413 33 21.848C34.4447 22.7274 36.1726 23.1535 37.9753 22.9498C42.3205 22.4475 45.4434 18.4807 44.9484 14.0883C44.4663 9.79817 40.706 6.69779 36.4782 7.02346Z" fill="white"/>
</svg>
