<svg width="60" height="48" viewBox="0 0 60 48" fill="none" xmlns="http://www.w3.org/2000/svg">
<path fill-rule="evenodd" clip-rule="evenodd" d="M53 23.9997C53 36.7033 42.7081 47 30.0029 47C17.2999 47 7 36.7033 7 23.9997C7 11.2973 17.2999 1 30.0029 1C42.7081 1 53 11.2973 53 23.9997Z" fill="#18191A"/>
<path fill-rule="evenodd" clip-rule="evenodd" d="M10.9035 31.9918C10.9035 31.9918 5 32.0854 5 26.8119C5 21.2453 10.6813 21.5286 10.6813 21.5286C10.6813 21.5286 9.63383 18.9886 11.1274 16.8077C12.0446 15.4662 14.0715 14.3516 16.5559 15.3237C15.9642 11.0815 18.9157 5.23915 25.6428 5.01222C32.7644 4.76804 36.1172 8.21977 36.5293 12.2041C37.3546 11.3659 40.9387 8.95114 45.0198 12.4281C47.8665 14.8607 46.5446 19.0696 46.5446 19.0696C46.5446 19.0696 55 17.7465 55 25.7616C55 32.4887 46.853 31.9918 46.853 31.9918H10.9035" fill="#C6C9CC"/>
</svg>
