<svg width="60" height="48" viewBox="0 0 60 48" fill="none" xmlns="http://www.w3.org/2000/svg">
<path fill-rule="evenodd" clip-rule="evenodd" d="M33.4484 7.93426C34.9543 8.40256 39.4076 3.00873 39.4076 3.00873C39.4076 3.00873 38.7949 9.7929 39.7576 10.7557C40.7127 11.7248 47.1843 8.69634 47.1843 8.69634C47.1843 8.69634 43.6254 14.5049 44.3699 15.9127C45.1133 17.324 51.9963 17.0739 51.9963 17.0739C51.9963 17.0739 46.5063 20.9122 46.5063 22.5137C46.5063 24.1094 53 26.6835 53 26.6835C53 26.6835 46.4491 27.9913 45.7821 29.4154C45.1133 30.84 50.0306 35.8848 50.0306 35.8848C50.0306 35.8848 43.4218 34.3246 42.3313 35.4223C41.2455 36.5189 43.5913 43.071 43.5913 43.071C43.5913 43.071 38.3506 38.8592 36.7534 39.5015C35.1498 40.1478 34.8102 47 34.8102 47C34.8102 47 31.4104 40.943 30.0035 40.943C28.5879 40.943 25.1944 47 25.1944 47C25.1944 47 24.7258 40.1501 23.2477 39.5015C21.7714 38.8534 16.4099 43.071 16.4099 43.071C16.4099 43.071 18.7343 36.4927 17.6687 35.4223C16.6043 34.3508 9.97407 35.8848 9.97407 35.8848C9.97407 35.8848 14.5714 31.0297 14.2156 29.4154C13.8662 27.7964 7 26.6835 7 26.6835C7 26.6835 13.4937 24.2158 13.4937 22.5137C13.4937 20.8162 8.0037 17.0739 8.0037 17.0739C8.0037 17.0739 15.0134 17.2228 15.6277 15.9127C16.2427 14.6073 12.8145 8.69634 12.8145 8.69634C12.8145 8.69634 18.9767 11.5032 20.2459 10.7557C21.5169 10.018 20.5907 3.00873 20.5907 3.00873C20.5907 3.00873 25.2187 8.3025 26.5492 7.93426C27.8827 7.56486 30.0035 1 30.0035 1C30.0035 1 31.9409 7.46713 33.4484 7.93426Z" fill="#FFD417"/>
</svg>
