<svg width="60" height="48" viewBox="0 0 60 48" fill="none" xmlns="http://www.w3.org/2000/svg">
<path fill-rule="evenodd" clip-rule="evenodd" d="M47.249 4.52235C48.231 4.82776 51.1354 1.31004 51.1354 1.31004C51.1354 1.31004 50.7358 5.7345 51.3636 6.36239C51.9865 6.99446 56.2072 5.01935 56.2072 5.01935C56.2072 5.01935 53.8861 8.80757 54.3717 9.7257C54.8565 10.6461 59.3454 10.483 59.3454 10.483C59.3454 10.483 55.765 12.9862 55.765 14.0307C55.765 15.0713 60 16.7501 60 16.7501C60 16.7501 55.7277 17.603 55.2926 18.5318C54.8565 19.4609 58.0634 22.751 58.0634 22.751C58.0634 22.751 53.7533 21.7334 53.0422 22.4494C52.334 23.1645 53.8639 27.4376 53.8639 27.4376C53.8639 27.4376 50.4461 24.6908 49.4044 25.1096C48.3586 25.5311 48.1371 30 48.1371 30C48.1371 30 45.9198 26.0498 45.0023 26.0498C44.0791 26.0498 41.8659 30 41.8659 30C41.8659 30 41.5603 25.5327 40.5964 25.1096C39.6335 24.687 36.1369 27.4376 36.1369 27.4376C36.1369 27.4376 37.6528 23.1474 36.9578 22.4494C36.2636 21.7505 31.9396 22.751 31.9396 22.751C31.9396 22.751 34.9379 19.5846 34.7058 18.5318C34.478 17.4759 30 16.7501 30 16.7501C30 16.7501 34.235 15.1408 34.235 14.0307C34.235 12.9236 30.6546 10.483 30.6546 10.483C30.6546 10.483 35.2261 10.5801 35.6268 9.7257C36.0278 8.87435 33.7921 5.01935 33.7921 5.01935C33.7921 5.01935 37.8109 6.84991 38.6386 6.36239C39.4675 5.88133 38.8635 1.31004 38.8635 1.31004C38.8635 1.31004 41.8818 4.7625 42.7495 4.52235C43.6191 4.28143 45.0023 0 45.0023 0C45.0023 0 46.2658 4.21769 47.249 4.52235Z" fill="#FFD417"/>
<path fill-rule="evenodd" clip-rule="evenodd" d="M16 29.1177C16 26.0252 18.9896 26.1825 18.9896 26.1825C18.9896 26.1825 18.4384 24.7715 19.2244 23.5598C19.707 22.8146 20.7736 22.1954 22.0809 22.7354C21.7695 20.3786 24.6672 17.1329 28.2072 17.0068C31.9547 16.8711 35.0636 18.7888 35.2804 21.0023C35.7147 20.5366 37.6007 19.1951 39.7483 21.1267C41.2462 22.4781 40.5506 24.8165 40.5506 24.8165C40.5506 24.8165 45 24.0814 45 28.5342C45 32.2715 40.7129 31.9954 40.7129 31.9954H19.1065C19.1065 31.9954 16 32.0475 16 29.1177Z" fill="#E6E8EB"/>
</svg>
