<svg width="60" height="48" viewBox="0 0 60 48" fill="none" xmlns="http://www.w3.org/2000/svg">
<path fill-rule="evenodd" clip-rule="evenodd" d="M47.249 4.52235C48.231 4.82776 51.1354 1.31004 51.1354 1.31004C51.1354 1.31004 50.7358 5.7345 51.3636 6.36239C51.9865 6.99446 56.2072 5.01935 56.2072 5.01935C56.2072 5.01935 53.8861 8.80757 54.3717 9.7257C54.8565 10.6461 59.3454 10.483 59.3454 10.483C59.3454 10.483 55.765 12.9862 55.765 14.0307C55.765 15.0713 60 16.7501 60 16.7501C60 16.7501 55.7277 17.603 55.2926 18.5318C54.8565 19.4609 58.0634 22.751 58.0634 22.751C58.0634 22.751 53.7533 21.7334 53.0422 22.4494C52.334 23.1645 53.8639 27.4376 53.8639 27.4376C53.8639 27.4376 50.4461 24.6908 49.4044 25.1096C48.3586 25.5311 48.1371 30 48.1371 30C48.1371 30 45.9198 26.0498 45.0023 26.0498C44.0791 26.0498 41.8659 30 41.8659 30C41.8659 30 41.5603 25.5327 40.5964 25.1096C39.6335 24.687 36.1369 27.4376 36.1369 27.4376C36.1369 27.4376 37.6528 23.1474 36.9578 22.4494C36.2636 21.7505 31.9396 22.751 31.9396 22.751C31.9396 22.751 34.9379 19.5846 34.7058 18.5318C34.478 17.4759 30 16.7501 30 16.7501C30 16.7501 34.235 15.1408 34.235 14.0307C34.235 12.9236 30.6546 10.483 30.6546 10.483C30.6546 10.483 35.2261 10.5801 35.6268 9.7257C36.0278 8.87435 33.7921 5.01935 33.7921 5.01935C33.7921 5.01935 37.8109 6.84991 38.6386 6.36239C39.4675 5.88133 38.8635 1.31004 38.8635 1.31004C38.8635 1.31004 41.8818 4.7625 42.7495 4.52235C43.6191 4.28143 45.0023 0 45.0023 0C45.0023 0 46.2658 4.21769 47.249 4.52235Z" fill="#FFD417"/>
<path fill-rule="evenodd" clip-rule="evenodd" d="M15.6048 31.9933C15.6048 31.9933 11 32.0696 11 27.7726C11 23.2369 15.4314 23.4677 15.4314 23.4677C15.4314 23.4677 14.6144 21.3981 15.7794 19.6211C16.4948 18.528 18.0758 17.6199 20.0136 18.4119C19.5521 14.9553 21.8542 10.1949 27.1014 10.01C32.6563 9.811 35.2714 12.6235 35.5929 15.87C36.2366 15.187 39.0322 13.2194 42.2155 16.0526C44.4358 18.0346 43.4048 21.4641 43.4048 21.4641C43.4048 21.4641 50 20.386 50 26.9169C50 32.3982 43.6453 31.9933 43.6453 31.9933H15.6048Z" fill="#E6E8EB"/>
<path d="M32.656 42.113C32.0128 44.5136 30.669 45.2041 29.3353 44.8467C28.0017 44.4894 27.1831 43.2195 27.8264 40.8189C28.4696 38.4183 31.6647 36.1534 31.6647 36.1534C31.6647 36.1534 33.2992 39.7124 32.656 42.113Z" fill="#026DD1"/>
</svg>
