<svg width="60" height="48" viewBox="0 0 60 48" fill="none" xmlns="http://www.w3.org/2000/svg">
<path fill-rule="evenodd" clip-rule="evenodd" d="M45.099 7.22086C46.0156 7.50591 48.7263 4.2227 48.7263 4.2227C48.7263 4.2227 48.3534 8.3522 48.9394 8.93824C49.5208 9.52816 53.46 7.68473 53.46 7.68473C53.46 7.68473 51.2937 11.2204 51.7469 12.0773C52.1994 12.9364 56.3891 12.7841 56.3891 12.7841C56.3891 12.7841 53.0473 15.1204 53.0473 16.0953C53.0473 17.0666 57 18.6335 57 18.6335C57 18.6335 53.0125 19.4295 52.6065 20.2963C52.1994 21.1635 55.1925 24.2342 55.1925 24.2342C55.1925 24.2342 51.1698 23.2845 50.506 23.9527C49.8451 24.6202 51.273 28.6084 51.273 28.6084C51.273 28.6084 48.083 26.0447 47.1108 26.4357C46.1347 26.8291 45.928 31 45.928 31C45.928 31 43.8585 27.3131 43.0021 27.3131C42.1404 27.3131 40.0749 31 40.0749 31C40.0749 31 39.7896 26.8305 38.8899 26.4357C37.9913 26.0412 34.7278 28.6084 34.7278 28.6084C34.7278 28.6084 36.1426 24.6043 35.494 23.9527C34.8461 23.3005 30.8103 24.2342 30.8103 24.2342C30.8103 24.2342 33.6087 21.2789 33.3921 20.2963C33.1794 19.3108 29 18.6335 29 18.6335C29 18.6335 32.9527 17.1314 32.9527 16.0953C32.9527 15.062 29.6109 12.7841 29.6109 12.7841C29.6109 12.7841 33.8777 12.8748 34.2517 12.0773C34.626 11.2827 32.5393 7.68473 32.5393 7.68473C32.5393 7.68473 36.2902 9.39325 37.0627 8.93824C37.8364 8.48924 37.2726 4.2227 37.2726 4.2227C37.2726 4.2227 40.0896 7.445 40.8995 7.22086C41.7112 6.996 43.0021 3 43.0021 3C43.0021 3 44.1814 6.93651 45.099 7.22086Z" fill="#FFD417"/>
<path fill-rule="evenodd" clip-rule="evenodd" d="M12.5493 31.9924C12.5493 31.9924 7 32.0791 7 27.1962C7 22.042 12.3404 22.3042 12.3404 22.3042C12.3404 22.3042 11.3558 19.9524 12.7598 17.9331C13.6219 16.6909 15.5272 15.6589 17.8626 16.559C17.3063 12.631 20.0807 7.22144 26.4042 7.01131C33.0986 6.78523 36.2502 9.98127 36.6375 13.6704C37.4133 12.8943 40.7824 10.6585 44.6187 13.8779C47.2945 16.1302 46.0519 20.0274 46.0519 20.0274C46.0519 20.0274 54 18.8023 54 26.2237C54 32.4525 46.3418 31.9924 46.3418 31.9924H12.5493Z" fill="#E6E8EB"/>
<path d="M21.656 42.1125C21.0128 44.5131 19.669 45.2036 18.3353 44.8462C17.0017 44.4889 16.1831 43.219 16.8264 40.8185C17.4696 38.4179 20.6647 36.1529 20.6647 36.1529C20.6647 36.1529 22.2992 39.7119 21.656 42.1125Z" fill="#026DD1"/>
<path d="M32.656 42.1125C32.0128 44.5131 30.669 45.2036 29.3353 44.8462C28.0017 44.4889 27.1831 43.219 27.8264 40.8185C28.4696 38.4179 31.6647 36.1529 31.6647 36.1529C31.6647 36.1529 33.2992 39.7119 32.656 42.1125Z" fill="#026DD1"/>
<path d="M43.656 42.1125C43.0128 44.5131 41.669 45.2036 40.3353 44.8462C39.0017 44.4889 38.1831 43.219 38.8264 40.8185C39.4696 38.4179 42.6647 36.1529 42.6647 36.1529C42.6647 36.1529 44.2992 39.7119 43.656 42.1125Z" fill="#026DD1"/>
</svg>
